<svg width="129" height="139" viewBox="0 0 129 139" fill="none" xmlns="http://www.w3.org/2000/svg">
<g clip-path="url(#clip0_1947_457)">
<path d="M31.9279 31.9151C32.7205 30.3965 34.6805 30.1243 35.8023 31.4421C38.6954 34.8404 42.9495 40.8025 44.3415 47.7188L39.6862 50.642C37.6877 43.801 33.7709 40.1813 31.1684 38.4502C30.1324 37.7608 29.7549 36.3573 30.231 35.1903L30.3376 34.9599L31.9279 31.9151Z" fill="#8BCC3F" stroke="white"/>
<path d="M32.1423 31.5706C33.0021 30.4043 34.653 30.2413 35.6945 31.3231L35.8023 31.4418C38.6951 34.84 42.9501 40.8018 44.3423 47.7179L39.6853 50.6422C39.5049 50.026 39.3081 49.4368 39.0988 48.8722L39.8448 48.4037C40.9484 47.7105 41.4357 46.3052 41.0724 45.0285C39.3714 39.0602 35.2614 34.4103 32.1423 31.5706Z" fill="#659922" stroke="white"/>
<path d="M60.1638 46.1492C69.2457 40.4465 80.9578 44.4532 85.287 54.81L97.7041 84.5186C100.401 90.9708 98.1295 98.5439 92.4774 102.093L85.5956 106.415L54.6897 49.5866L60.1638 46.1492Z" fill="#FFB454" stroke="white"/>
<path d="M71.3002 43.6977C77.201 44.4975 82.6352 48.4624 85.2891 54.811L97.7057 84.5188C100.403 90.9713 98.1318 98.545 92.4795 102.094L85.5986 106.415L83.7225 102.965L85.9538 101.564C92.0629 97.7281 94.4784 89.5743 91.5937 82.6726L79.1766 52.964C77.4664 48.8725 74.6537 45.7198 71.3002 43.6977Z" fill="#FF9002" stroke="white"/>
<path d="M29.0979 65.6576L34.5712 62.2208L65.4772 119.049L58.5955 123.37C52.9431 126.919 45.688 125.328 41.7801 119.636L23.7872 93.4288C17.6129 84.4347 19.9396 71.7634 28.6769 65.93L29.0979 65.6576Z" fill="#FFB454" stroke="white"/>
<path d="M29.3538 65.6584L34.8263 62.2221L65.7323 119.05L58.8522 123.37C54.4447 126.138 49.0662 125.778 45.0562 122.787C46.2537 122.835 47.4545 122.717 48.6278 122.431L48.9719 122.341C50.9689 121.795 51.6034 119.213 50.3334 117.625C49.8185 116.981 49.3199 116.275 48.8319 115.491L29.0492 83.6767C26.4382 79.4779 25.0347 74.5543 24.9463 69.5677C26.1728 68.0596 27.6456 66.7311 29.3538 65.6584Z" fill="#FF9002" stroke="white"/>
<path d="M39.6715 51.8306L43.762 49.262C53.003 43.4594 64.916 47.2108 69.7712 57.5138L85.855 91.6492C90.3125 101.11 87.1352 112.638 78.648 117.968L78.2543 118.215C69.7669 123.544 58.86 120.86 53.3774 112.043L33.596 80.2293C27.6248 70.6271 30.4305 57.6333 39.6715 51.8306Z" fill="#FFB454" stroke="white"/>
<path d="M56.7833 46.9177C62.1809 48.0763 67.0692 51.7826 69.7699 57.5141L85.8553 91.6484C90.3129 101.11 87.1349 112.638 78.6475 117.967L78.2547 118.214C73.3905 121.268 67.7353 121.689 62.7585 119.833C65.7514 119.648 68.7472 118.727 71.5035 116.996L71.8963 116.749C80.8577 111.122 84.1703 98.987 79.4988 89.0731L63.4137 54.9374C61.8249 51.5648 59.5109 48.8593 56.7833 46.9177Z" fill="#FF9002" stroke="white"/>
</g>
<defs>
<clipPath id="clip0_1947_457">
<rect width="95.827" height="99.2637" fill="white" transform="matrix(0.846881 -0.531783 0.477766 0.878487 0 50.9591)"/>
</clipPath>
</defs>
</svg>
