<svg width="35" height="35" viewBox="0 0 35 35" fill="none" xmlns="http://www.w3.org/2000/svg">
<path d="M3.31783 34.5794C2.45977 34.6293 1.61586 34.344 0.964055 33.7837C-0.321352 32.4907 -0.321352 30.4023 0.964055 29.1093L29.1103 0.962944C30.4472 -0.288073 32.5451 -0.21853 33.7961 1.11841C34.9273 2.32739 34.9933 4.18563 33.9505 5.4717L5.63842 33.7837C4.99509 34.3359 4.16465 34.6207 3.31783 34.5794Z" fill="white"/>
<path d="M31.4321 34.5795C30.5624 34.5758 29.729 34.2305 29.1114 33.6181L0.965131 5.47166C-0.225733 4.08101 -0.0638284 1.98816 1.32682 0.797184C2.56801 -0.265728 4.39852 -0.265728 5.63961 0.797184L33.9516 28.9435C35.2883 30.1948 35.3574 32.2928 34.106 33.6294C34.0562 33.6826 34.0048 33.734 33.9516 33.7838C33.6087 34.0821 33.208 34.3066 32.7746 34.4435C32.3412 34.5803 31.8842 34.6266 31.4321 34.5795Z" fill="white"/>
</svg>
