<svg width="32" height="32" viewBox="0 0 32 32" fill="none" xmlns="http://www.w3.org/2000/svg">
<g clip-path="url(#clip0_2234_1847)">
<path d="M31.109 10.7363C31.6852 12.3856 31.9995 14.1567 31.9995 16.0001C31.9995 17.8435 31.6852 19.6146 31.109 21.2638C31.0953 21.313 31.0783 21.3612 31.0581 21.4082C28.8358 27.5771 22.925 32 15.9998 32C9.07458 32 3.16359 27.5771 0.941433 21.4082C0.92125 21.3615 0.90443 21.3134 0.890516 21.2638C0.314372 19.6146 0 17.8435 0 16.0001C0 14.1567 0.314372 12.3856 0.890516 10.7363C0.904583 10.6868 0.92125 10.6385 0.941433 10.592C3.16375 4.42292 9.07458 0.000162125 15.9998 0.000162125C22.925 0.000162125 28.8358 4.42307 31.0581 10.592C31.0783 10.6389 31.0953 10.6871 31.109 10.7363ZM15.9998 2.29358C15.3904 2.29358 14.408 3.39632 13.5869 5.85992C13.1906 7.04875 12.8733 8.41541 12.6421 9.9021H19.3574C19.1262 8.41541 18.8089 7.0489 18.4128 5.85992C17.5915 3.39632 16.6091 2.29358 15.9998 2.29358ZM12.3639 12.1957C12.2536 13.4186 12.1954 14.6944 12.1954 16.0001C12.1954 17.3057 12.2536 18.5816 12.3639 19.8045H19.6355C19.7458 18.5816 19.804 17.3057 19.804 16.0001C19.804 14.6944 19.7458 13.4186 19.6355 12.1957H12.3639ZM2.29341 15.9999C2.29341 17.3195 2.48133 18.5959 2.83103 19.8043H10.0634C9.95622 18.5562 9.90179 17.277 9.90179 15.9999C9.90179 14.7229 9.95607 13.4437 10.0634 12.1955H2.83103C2.47358 13.432 2.29259 14.7128 2.29341 15.9999ZM15.9998 29.7064C16.6091 29.7064 17.5917 28.6037 18.4128 26.1401C18.8089 24.9513 19.1264 23.5846 19.3574 22.0981H12.642C12.8732 23.5848 13.1905 24.9513 13.5868 26.1401C14.408 28.6037 15.3904 29.7064 15.9998 29.7064ZM21.936 19.8043H29.1684C29.5181 18.5959 29.706 17.3195 29.706 15.9999C29.706 14.6804 29.5181 13.4039 29.1684 12.1955H21.936C22.0432 13.4437 22.0976 14.7229 22.0976 15.9999C22.0976 17.277 22.0432 18.5562 21.936 19.8043ZM28.2722 22.0979H21.6728C21.2649 24.9109 20.565 27.4346 19.5832 29.23C23.3898 28.198 26.5435 25.5633 28.2722 22.0979ZM12.4162 29.2301C11.4344 27.4347 10.7345 24.911 10.3266 22.0979H3.7272C5.45609 25.5633 8.60959 28.198 12.4162 29.2301ZM3.7272 9.9021H10.3266C10.7345 7.08912 11.4344 4.56543 12.4162 2.76987C8.60959 3.80198 5.45609 6.43652 3.7272 9.9021ZM19.5832 2.76987C20.565 4.56528 21.2649 7.08896 21.6728 9.9021H28.2722C26.5435 6.43652 23.3898 3.80198 19.5832 2.76987Z" fill="#FF9002"/>
</g>
<defs>
<clipPath id="clip0_2234_1847">
<rect width="32" height="32" fill="white" transform="matrix(1 0 0 -1 0 32)"/>
</clipPath>
</defs>
</svg>
