<svg width="35" height="24" viewBox="0 0 35 24" fill="none" xmlns="http://www.w3.org/2000/svg">
<path d="M27.5 4.60217H7.5C6.83696 4.60217 6.20107 4.35973 5.73223 3.92819C5.26339 3.49666 5 2.91137 5 2.30108C5 1.6908 5.26339 1.10551 5.73223 0.673972C6.20107 0.242435 6.83696 0 7.5 0H27.5C28.163 0 28.7989 0.242435 29.2678 0.673972C29.7366 1.10551 30 1.6908 30 2.30108C30 2.91137 29.7366 3.49666 29.2678 3.92819C28.7989 4.35973 28.163 4.60217 27.5 4.60217ZM35 11.5054C35 10.8951 34.7366 10.3098 34.2678 9.8783C33.7989 9.44677 33.163 9.20433 32.5 9.20433H2.5C1.83696 9.20433 1.20107 9.44677 0.732233 9.8783C0.263392 10.3098 0 10.8951 0 11.5054C0 12.1157 0.263392 12.701 0.732233 13.1325C1.20107 13.5641 1.83696 13.8065 2.5 13.8065H32.5C33.163 13.8065 33.7989 13.5641 34.2678 13.1325C34.7366 12.701 35 12.1157 35 11.5054ZM30 20.7097C30 20.0995 29.7366 19.5142 29.2678 19.0826C28.7989 18.6511 28.163 18.4087 27.5 18.4087H7.5C6.83696 18.4087 6.20107 18.6511 5.73223 19.0826C5.26339 19.5142 5 20.0995 5 20.7097C5 21.32 5.26339 21.9053 5.73223 22.3369C6.20107 22.7684 6.83696 23.0108 7.5 23.0108H27.5C28.163 23.0108 28.7989 22.7684 29.2678 22.3369C29.7366 21.9053 30 21.32 30 20.7097Z" fill="#FF9002"/>
</svg>
