<svg width="126" height="126" viewBox="0 0 126 126" fill="none" xmlns="http://www.w3.org/2000/svg">
<g clip-path="url(#clip0_1948_257)">
<path d="M113.978 41.6035C113.789 41.8721 113.55 42.1006 113.272 42.2759C112.995 42.4513 112.686 42.5699 112.362 42.6251C112.039 42.6802 111.708 42.6708 111.388 42.5973C111.068 42.5238 110.766 42.3877 110.499 42.1968C109.101 41.1598 105.111 43.7568 101.199 47.4959C99.6467 48.9721 98.1911 50.547 96.8415 52.2109C96.4982 52.626 96.0297 52.9188 95.5061 53.0457C94.9826 53.1725 94.432 53.1265 93.9368 52.9145C93.732 52.8265 93.536 52.7138 93.3489 52.5803C93.071 52.3672 92.845 52.0938 92.688 51.7807C92.4726 51.3641 92.3788 50.8953 92.4172 50.4278C92.4555 49.9604 92.6246 49.5131 92.9051 49.1372C92.9154 49.1132 92.957 49.078 92.9674 49.0541C93.707 48.1533 95.4925 46.019 97.7963 43.8119C102.265 39.4689 108.709 34.8129 113.387 38.1237C114.505 38.9304 114.762 40.4772 113.978 41.6035Z" fill="#4B9B43"/>
<path d="M101.135 48.3771C99.582 49.8533 98.1264 51.4282 96.7768 53.0921C96.4335 53.5072 95.965 53.8 95.4415 53.9269C94.9179 54.0537 94.3673 54.0077 93.8721 53.7957C93.6673 53.7077 93.4713 53.595 93.2842 53.4615C93.0063 53.2484 92.7803 52.975 92.6233 52.6619C92.74 51.7644 92.8221 50.8767 92.8404 50.0184C92.8507 49.9944 92.8924 49.9592 92.9027 49.9353C93.6424 49.0345 95.4278 46.9002 97.7316 44.6931C99.1282 45.65 100.291 46.9092 101.135 48.3771Z" fill="#3F8441"/>
<path d="M94.262 48.2308C97.6985 49.1896 100.106 52.7232 100.611 57.4322C101.114 62.1205 99.7042 67.8727 95.6078 73.0319L95.5552 73.0975L95.527 73.1779C95.3118 73.794 94.7865 74.6182 93.9422 75.6037C93.1054 76.5804 91.9832 77.6843 90.6153 78.8602C87.8798 81.2118 84.1847 83.8314 79.881 86.2757C71.2649 91.1693 60.2698 95.3275 49.7015 95.2824L49.674 95.2822L49.6461 95.2852C39.0708 96.4164 28.866 93.3487 21.7421 89.6455C18.1788 87.7932 15.4136 85.7956 13.7682 84.1124C12.94 83.2651 12.4302 82.5318 12.2216 81.9659C12.1188 81.6867 12.1001 81.4791 12.1251 81.3323C12.148 81.1986 12.2106 81.0875 12.3367 80.9885L12.4246 80.92L12.4697 80.8299C12.4699 80.8297 12.4845 80.8105 12.5368 80.7801C12.6091 80.7381 12.7249 80.6908 12.8973 80.6438C13.2427 80.5495 13.7376 80.4789 14.387 80.4274C15.6834 80.3246 17.4821 80.3047 19.6921 80.2693C24.0949 80.1988 30.0485 80.067 36.5566 79.0708C49.561 77.0802 64.8523 71.6253 74.4854 56.239C79.2351 50.5194 87.1014 46.138 94.2562 48.2294L94.262 48.2308Z" fill="#FFB454" stroke="white"/>
<path d="M47.1078 80.5375C47.0393 80.2821 47.0218 80.0157 47.0562 79.7535C47.0907 79.4914 47.1765 79.2386 47.3088 79.0095C47.441 78.7805 47.617 78.5798 47.8269 78.4189C48.0367 78.258 48.2762 78.1399 48.5316 78.0716C62.5615 74.3128 73.0774 61.506 74.9277 58.5373C75.2152 58.0944 75.6651 57.782 76.1806 57.6675C76.6961 57.553 77.2359 57.6455 77.6839 57.925C78.1319 58.2045 78.4523 58.6487 78.576 59.1621C78.6998 59.6754 78.617 60.2168 78.3456 60.6698C76.1982 64.1135 65.0202 77.8259 49.573 81.963C49.3176 82.0316 49.0511 82.0491 48.7888 82.0146C48.5265 81.9801 48.2737 81.8941 48.0447 81.7617C47.8157 81.6293 47.615 81.453 47.4543 81.243C47.2935 81.0329 47.1758 80.7932 47.1078 80.5375Z" fill="#F6D190"/>
<path d="M94.389 48.2662C97.7606 49.2784 100.112 52.7817 100.609 57.4313C101.11 62.1192 99.6989 67.8708 95.6066 73.0291L95.554 73.0947L95.5267 73.1755C95.3121 73.7929 94.7868 74.6177 93.9429 75.6039C93.1065 76.5813 91.9842 77.6855 90.6165 78.8617C87.8817 81.2136 84.1872 83.8321 79.8838 86.2758C71.2685 91.1681 60.2744 95.3253 49.7084 95.2831L49.6808 95.2829L49.653 95.2859C40.839 96.2243 32.2851 94.2537 25.5518 91.4275C22.1868 90.015 19.2854 88.3927 17.0432 86.8221C15.8515 85.9873 14.8574 85.1744 14.0805 84.424C21.2322 87.8684 30.9981 90.5576 41.1422 89.4837C51.9401 89.5195 63.0988 85.2822 71.7884 80.3481C76.1412 77.8765 79.8899 75.2211 82.6795 72.8225C84.0741 71.6235 85.2346 70.4827 86.113 69.4566C86.9529 68.4754 87.5585 67.5672 87.8485 66.7915C92.8489 60.4513 94.0043 53.1974 92.5002 47.8529C93.0903 47.938 93.6776 48.0601 94.2573 48.2287L94.389 48.2662Z" fill="#FF9801" stroke="white"/>
<path d="M95.7432 46.0979C93.205 45.4637 91.1771 44.2774 89.2481 42.548C88.7136 42.0718 87.9486 42.0216 87.4909 42.619C86.9824 43.2818 87.3601 44.2022 87.7765 44.8209C89.0242 46.6669 90.9787 47.5126 92.7454 48.7288C94.0616 49.6182 95.2466 50.6877 96.2658 51.9061C96.9959 52.796 97.3916 53.8948 98.0351 54.8405C98.6122 55.6893 101.622 59.7845 102.809 57.7605C103.432 56.698 102.174 55.1599 101.596 54.3431C100.395 52.6519 98.6352 51.0501 98.6003 48.8251" fill="#3F8441"/>
</g>
<defs>
<clipPath id="clip0_1948_257">
<rect width="95.7693" height="95.7693" fill="white" transform="translate(37.8203) rotate(23.2595)"/>
</clipPath>
</defs>
</svg>
