<svg width="88" height="88" viewBox="0 0 88 88" fill="none" xmlns="http://www.w3.org/2000/svg">
<g clip-path="url(#clip0_1947_433)">
<path d="M3.86847 44C2.38467 44 1.20028 45.25 1.2943 46.7311C2.15849 60.4268 9.47847 72.3695 20.2442 79.5532C21.4776 80.3758 23.1513 79.9702 23.8926 78.6871L43.9195 44L3.86847 44Z" fill="#FFA000"/>
<path d="M63.9482 78.6915L43.9191 44.0002L23.8898 78.6915C23.1499 79.9731 23.6327 81.6233 24.958 82.2807C30.6708 85.1167 37.1088 86.7111 43.9186 86.7111C50.7292 86.7111 57.1671 85.1167 62.8799 82.2807C64.2054 81.6233 64.688 79.9731 63.9482 78.6915ZM23.8926 9.31307C23.1513 8.03003 21.4776 7.6244 20.2442 8.44682C9.47847 15.6309 2.15866 27.5736 1.2943 41.2691C1.20028 42.7501 2.38467 44.0002 3.86847 44.0002L43.9191 44.0002L23.8926 9.31307Z" fill="#FFA000"/>
<path d="M62.8803 5.7188C57.1674 2.88355 50.7295 1.28906 43.9191 1.28906C37.109 1.28906 30.6711 2.88355 24.9583 5.7188C23.633 6.37691 23.1502 8.02708 23.8901 9.30806L43.9196 44L63.9484 9.30875C64.6883 8.02708 64.2057 6.37691 62.8803 5.7188Z" fill="#FFA000"/>
<path d="M86.5431 41.2692C85.6784 27.5734 78.359 15.6306 67.5925 8.44695C66.36 7.62435 64.6855 8.02998 63.9443 9.31303L43.918 44.0003H61.2773L61.2767 52.6049C61.2767 54.3639 62.7027 55.7897 64.4618 55.7897H64.5437C66.3733 55.7897 67.8428 54.3202 67.8428 52.5069V51.3244C67.8428 50.1945 68.7587 49.2795 69.8879 49.2795C71.0178 49.2795 71.9336 50.1952 71.9336 51.3244V60.5123C71.9336 61.8954 73.0549 63.0174 74.4378 63.0174C75.8209 63.0174 76.942 61.8954 76.942 60.5123V44.0003H83.9676C85.4521 44.0003 86.6363 42.7503 86.543 41.2692H86.5431Z" fill="#FFA000"/>
<path d="M8.29301 44C8.29301 46.1309 7.79629 48.278 8.15138 50.307C8.5173 52.3935 9.72438 54.242 10.4327 56.1885C11.1539 58.1695 11.4237 60.3591 12.4658 62.1603C13.5177 63.9777 15.2849 65.3024 16.6276 66.901C17.9744 68.5042 18.9742 70.4727 20.5773 71.8195C22.176 73.1624 24.2861 73.8076 26.1036 74.8596L43.9208 44L8.29301 44Z" fill="#FFE082"/>
<path d="M35.0608 44L19.5742 70.8233C21.54 73.0704 23.7099 73.4745 26.1034 74.8596L43.9205 44H35.0608Z" fill="#FFB300"/>
<path d="M26.1016 74.8596C27.8963 75.8962 29.5116 77.4122 31.495 78.1339C33.4411 78.8423 35.6434 78.7261 37.7299 79.0921C39.7589 79.4472 41.7879 80.3146 43.9188 80.3146C46.0497 80.3146 48.0782 79.4472 50.107 79.0921C52.1936 78.7261 54.3958 78.8423 56.3423 78.134C58.3235 77.4128 59.9334 75.9015 61.734 74.8596C61.7347 74.8596 61.7347 74.8596 61.7354 74.859L43.9188 44L26.1016 74.8596Z" fill="#FFE082"/>
<path d="M43.92 44L41.4749 48.235L54.8615 71.4221H54.8603C53.0596 72.464 51.4496 73.9753 49.4684 74.6964C47.522 75.4055 45.3199 75.2886 43.2332 75.6546C41.2042 76.0097 39.176 76.8771 37.045 76.8771C34.9139 76.8771 32.8851 76.0097 30.8561 75.6546C29.4591 75.4095 28.0102 75.3799 26.6211 75.175C28.2195 76.1875 29.7068 77.4828 31.496 78.134C33.443 78.843 35.6445 78.7268 37.7311 79.0921C39.7608 79.4472 41.7891 80.3153 43.92 80.3153C46.0509 80.3153 48.0793 79.4473 50.1082 79.0921C52.1956 78.7268 54.397 78.8428 56.3434 78.134C58.3246 77.4128 59.9346 75.9022 61.736 74.8603C61.736 74.8596 61.736 74.8596 61.7365 74.8596L43.92 44Z" fill="#FFB300"/>
<path d="M26.1036 13.1406C24.2861 14.1927 22.176 14.8379 20.5774 16.1807C18.9742 17.5276 17.9744 19.496 16.6277 21.0998C15.2842 22.6986 13.5178 24.0225 12.4658 25.8406C11.4237 27.6412 11.1539 29.8314 10.4327 31.8119C9.72369 33.7582 8.5173 35.6066 8.15138 37.6933C7.79629 39.7221 8.29301 41.8694 8.29301 44.0003H43.921L26.1036 13.1406Z" fill="#FFE082"/>
<path d="M26.1017 13.1406C24.8873 13.8436 23.5418 14.3659 22.3057 15.0359L34.0664 35.4065C35.3898 37.698 33.7361 40.5628 31.0895 40.5628H8.07031C8.14766 41.6994 8.29117 42.8521 8.29117 44.0003H43.9191L26.1017 13.1406Z" fill="#FFB300"/>
<path d="M56.3423 9.86613C54.3958 9.158 52.1937 9.27402 50.107 8.90809C48.078 8.553 46.049 7.68555 43.9181 7.68555C41.7872 7.68555 39.7589 8.553 37.7299 8.90809C35.6434 9.27402 33.4411 9.15783 31.4948 9.86613C29.6506 10.5376 28.3662 11.7475 26.1016 13.1405L43.9188 44.0002L61.7354 13.1405C59.9408 12.1039 58.3254 10.5878 56.3423 9.86613Z" fill="#FFE082"/>
<path d="M56.3422 9.86551C55.6988 9.63124 55.0275 9.48824 54.3428 9.3877C54.5132 9.49611 54.6858 9.60126 54.8603 9.70309L39.4883 36.3269L43.9185 43.9995L61.7351 13.1399C59.9405 12.1033 58.3251 10.5874 56.3418 9.86568L56.3422 9.86551Z" fill="#FFB300"/>
<path d="M76.9422 44.0003H79.5451C79.5451 41.8694 80.042 39.7223 79.6869 37.6933C79.3208 35.6067 78.1137 33.7582 77.4054 31.8118C76.6844 29.8307 76.4145 27.6412 75.3725 25.84C74.3204 24.0225 72.5534 22.6979 71.2105 21.0993C69.8637 19.496 68.8641 17.5276 67.2608 16.1807C65.6622 14.8379 63.5521 14.1927 61.7345 13.1406L43.918 44.0003H61.2773L61.2767 52.6048C61.2767 54.3638 62.7027 55.7897 64.4618 55.7897H64.5437C66.3733 55.7897 67.8428 54.3202 67.8428 52.5069V51.3244C67.8428 50.1945 68.7587 49.2794 69.8879 49.2794C71.0178 49.2794 71.9329 50.1945 71.9329 51.3244V60.5123C71.9329 61.8954 73.0549 63.0165 74.438 63.0165C75.8209 63.0165 76.9422 61.8954 76.9422 60.5123V44.0003Z" fill="#FFE082"/>
<path d="M79.6867 37.6933C79.321 35.6067 78.1137 33.7582 77.4054 31.8117C76.6844 29.8307 76.4145 27.6412 75.3725 25.84C74.3204 24.0225 72.5534 22.6979 71.2105 21.0993C69.8637 19.496 68.8641 17.5276 67.2608 16.1807C65.6622 14.8379 63.5521 14.1927 61.7345 13.1406L61.3889 13.7394C62.4571 14.9608 63.2929 16.4203 64.3355 17.6616C65.6784 19.2604 67.4454 20.585 68.4975 22.4025C69.5395 24.2037 69.8094 26.3932 70.5304 28.3744C71.2394 30.3207 72.446 32.1684 72.8119 34.2558L72.8218 34.3161C73.3677 37.5938 70.7868 40.5628 67.4642 40.5628H45.9026L43.918 44.0003H70.067V49.2882C71.1125 49.3793 71.9336 50.2557 71.9336 51.3244V60.5123C71.9336 61.8961 73.0549 63.0174 74.4378 63.0174C75.8209 63.0174 76.942 61.8954 76.942 60.5123V44.0003H79.5451C79.5451 41.8694 80.0418 39.7223 79.6867 37.6933Z" fill="#FFB300"/>
<path d="M45.1936 68.7721C45.1936 71.5939 42.9054 73.8812 40.0836 73.8812C37.2617 73.8812 34.9737 71.5939 34.9737 68.7721C34.9737 65.9502 37.2617 63.6622 40.0836 63.6622C42.9054 63.6622 45.1934 65.9502 45.1934 68.7721H45.1936ZM29.2621 60.669C29.2621 63.4909 26.9747 65.7789 24.1523 65.7789C21.3303 65.7789 19.043 63.4909 19.043 60.669C19.043 57.8472 21.3303 55.5599 24.1521 55.5599C26.9747 55.5599 29.2621 57.8472 29.2621 60.669ZM33.4671 34.35C33.4671 37.1718 31.1789 39.4598 28.3572 39.4598C25.5352 39.4598 23.2472 37.1718 23.2472 34.35C23.2472 31.5281 25.5352 29.2401 28.357 29.2401C31.1789 29.2401 33.4669 31.5283 33.4669 34.35H33.4671ZM44.195 17.0356C44.195 19.8575 41.907 22.1455 39.0851 22.1455C36.2633 22.1455 33.976 19.8575 33.976 17.0356C33.976 14.2138 36.2633 11.9258 39.0851 11.9258C41.907 11.9258 44.195 14.2138 44.195 17.0356Z" fill="#EF5350"/>
<path d="M66.6406 23.3605C66.6406 24.7717 65.4966 25.9151 64.086 25.9151C62.6749 25.9151 61.5307 24.7717 61.5307 23.3605C61.5307 21.9494 62.6747 20.8059 64.086 20.8059C65.4966 20.8059 66.6406 21.9492 66.6406 23.3605ZM58.4189 36.6291C58.4189 38.0403 57.2748 39.1843 55.8635 39.1843C54.4529 39.1843 53.3089 38.0403 53.3089 36.6291C53.3089 35.218 54.4529 34.0745 55.8635 34.0745C57.2748 34.0745 58.4189 35.2178 58.4189 36.6291ZM55.4211 15.6959C55.4211 17.1072 54.2771 18.2506 52.8665 18.2506C51.4552 18.2506 50.3112 17.1072 50.3112 15.6959C50.3112 14.2848 51.4552 13.1406 52.8665 13.1406C54.2771 13.1406 55.4211 14.2846 55.4211 15.6959ZM46.4736 29.8314C46.4736 31.2425 45.3294 32.3867 43.9182 32.3867C42.5076 32.3867 41.3636 31.2425 41.3636 29.8312C41.3636 28.4207 42.5076 27.2767 43.9182 27.2767C45.3294 27.2767 46.4736 28.4207 46.4736 29.8312V29.8314ZM17.8442 37.6603C17.8442 39.0716 16.7002 40.2156 15.2896 40.2156C13.8784 40.2156 12.7344 39.0716 12.7344 37.6603C12.7344 36.2492 13.8784 35.1057 15.2896 35.1057C16.7002 35.1057 17.8442 36.249 17.8442 37.6603ZM32.5174 49.7802C32.5174 51.1908 31.3734 52.3348 29.9628 52.3348C28.5517 52.3348 27.4075 51.1908 27.4075 49.7802C27.4075 48.369 28.5515 47.225 29.9628 47.225C31.3734 47.225 32.5174 48.369 32.5174 49.7802ZM26.6031 21.429C26.2078 20.0746 24.7885 19.2972 23.4343 19.6934C22.0799 20.0887 21.3032 21.5082 21.6987 22.8624C22.0949 24.2166 23.5135 24.9933 24.8677 24.5978C26.2218 24.2018 26.9993 22.7832 26.6031 21.429ZM18.7648 51.6649C18.7648 53.0759 17.6206 54.2201 16.2093 54.2201C14.7988 54.2201 13.6548 53.0761 13.6548 51.6649C13.6548 50.2536 14.7988 49.1101 16.2095 49.1101C17.6206 49.1101 18.7648 50.2536 18.7648 51.6649ZM54.7477 71.327C54.7477 72.7383 53.6044 73.8823 52.1931 73.8823C50.7818 73.8823 49.6385 72.7383 49.6385 71.327C49.6385 69.9164 50.7818 68.7724 52.1931 68.7724C53.6044 68.7724 54.7477 69.9164 54.7477 71.327ZM46.4736 56.7747C46.4736 58.1853 45.3294 59.3294 43.9182 59.3294C42.5076 59.3294 41.3636 58.1853 41.3636 56.7747C41.3636 55.3636 42.5076 54.2194 43.9182 54.2194C45.3294 54.2194 46.4736 55.3634 46.4736 56.7747Z" fill="#FFA000"/>
<path d="M73.5397 34.6938C73.5397 37.5157 71.2515 39.8037 68.4296 39.8037C65.6078 39.8037 63.3203 37.5157 63.3203 34.6938C63.3203 31.872 65.6078 29.584 68.4296 29.584C71.2515 29.584 73.5397 31.8722 73.5397 34.6938Z" fill="#EF5350"/>
<path d="M41.1481 63.7736C43.1838 67.5514 39.8819 72.1021 35.5836 71.1917C36.4464 72.7929 38.1384 73.8812 40.0847 73.8812C42.9072 73.8812 45.1945 71.5939 45.1945 68.772C45.1945 66.3147 43.4596 64.2631 41.1481 63.7736ZM25.2168 55.6712C27.2525 59.4485 23.9513 63.9991 19.6523 63.0893C20.5157 64.6907 22.2069 65.779 24.1539 65.779C26.9758 65.779 29.2632 63.4908 29.2632 60.6691C29.2632 58.2117 27.5283 56.1607 25.2168 55.6712ZM29.4217 29.3515C31.4567 33.1293 28.1553 37.68 23.8573 36.7696C24.7201 38.3709 26.4118 39.4599 28.3582 39.4599C31.18 39.4599 33.468 37.1718 33.468 34.3501C33.468 31.8928 31.7333 29.841 29.4217 29.3515ZM40.1498 12.0371C42.1848 15.8149 38.8841 20.3657 34.5854 19.4552C35.4482 21.0566 37.1399 22.1456 39.0863 22.1456C41.9081 22.1456 44.1961 19.8574 44.1961 17.0357C44.1961 14.5783 42.4614 12.5273 40.1498 12.0371ZM69.492 29.6959C71.5277 33.4732 68.2265 38.0244 63.9275 37.114C64.7903 38.7154 66.4823 39.8037 68.4286 39.8037C71.2511 39.8037 73.5384 37.5155 73.5384 34.6938C73.5384 32.2365 71.8037 30.1847 69.492 29.6959Z" fill="#D32F2F"/>
<path d="M46.4824 68.7721C46.4824 65.244 43.6114 62.3732 40.0833 62.3732C36.5545 62.3732 33.6844 65.244 33.6844 68.7721C33.6844 72.3001 36.555 75.1703 40.0833 75.1703C43.6115 75.1703 46.4822 72.3001 46.4822 68.7721H46.4824ZM36.2623 68.7721C36.2623 66.6652 37.9765 64.9513 40.0831 64.9513C42.1898 64.9513 43.9041 66.6652 43.9041 68.7721C43.9041 70.8789 42.1901 72.5922 40.0833 72.5922C37.9765 72.5922 36.2623 70.8789 36.2623 68.7721ZM24.1519 54.2708C20.6238 54.2708 17.7536 57.1409 17.7536 60.669C17.7536 64.1971 20.6238 67.0679 24.1519 67.0679C27.6808 67.0679 30.5508 64.1973 30.5508 60.669C30.5508 57.1408 27.6808 54.2708 24.1519 54.2708ZM24.1519 64.49C22.0457 64.49 20.3318 62.7759 20.3318 60.6692C20.3318 58.5625 22.0457 56.8489 24.1519 56.8489C26.2587 56.8489 27.9726 58.5624 27.9726 60.669C27.9726 62.7757 26.2587 64.4898 24.1519 64.4898V64.49ZM28.3568 27.9511C24.828 27.9511 21.9579 30.8219 21.9579 34.35C21.9579 37.8782 24.828 40.7489 28.3568 40.7489C31.885 40.7489 34.7552 37.8782 34.7552 34.35C34.7552 30.8219 31.8849 27.9511 28.3568 27.9511ZM28.3568 38.1708C26.2499 38.1708 24.536 36.4568 24.536 34.35C24.536 32.2433 26.2499 30.5292 28.3568 30.5292C30.4629 30.5292 32.177 32.2433 32.177 34.35C32.177 36.4568 30.4636 38.1708 28.3568 38.1708ZM45.4838 17.0356C45.4838 13.5075 42.6131 10.6367 39.0849 10.6367C35.5566 10.6367 32.6867 13.5075 32.6867 17.0356C32.6867 20.5639 35.5568 23.4345 39.0849 23.4345C42.613 23.4345 45.4838 20.5639 45.4838 17.0356ZM35.2641 17.0356C35.2641 14.9288 36.978 13.2148 39.0849 13.2148C41.1917 13.2148 42.9057 14.9288 42.9057 17.0356C42.9057 19.1425 41.1917 20.8564 39.0849 20.8564C36.978 20.8564 35.2641 19.1425 35.2641 17.0356ZM67.9289 23.3601C67.9289 21.2405 66.205 19.5165 64.0853 19.5165C61.9657 19.5165 60.241 21.2405 60.241 23.3601C60.241 25.4797 61.9657 27.2038 64.0853 27.2038C66.2049 27.2038 67.9289 25.4798 67.9289 23.3601ZM62.8191 23.3601C62.8191 22.662 63.3871 22.0946 64.0853 22.0946C64.7835 22.0946 65.3508 22.6618 65.3508 23.3601C65.3508 24.0584 64.7836 24.6256 64.0853 24.6256C63.387 24.6256 62.8191 24.0584 62.8191 23.3601ZM55.8628 32.785C53.7432 32.785 52.0192 34.5091 52.0192 36.6287C52.0192 38.7483 53.7432 40.473 55.8628 40.473C57.9824 40.473 59.7073 38.7483 59.7073 36.6287C59.7073 34.5091 57.9824 32.785 55.8628 32.785ZM55.8628 37.8949C55.1653 37.8949 54.5973 37.327 54.5973 36.6287C54.5973 35.9312 55.1653 35.3632 55.8628 35.3632C56.5611 35.3632 57.1292 35.9312 57.1292 36.6287C57.1292 37.327 56.5611 37.8949 55.8628 37.8949ZM52.8658 19.5393C54.9854 19.5393 56.7095 17.8151 56.7095 15.6955C56.7095 13.576 54.9854 11.8512 52.8658 11.8512C50.7463 11.8512 49.0222 13.576 49.0222 15.6955C49.0222 17.8151 50.7461 19.5393 52.8658 19.5393ZM52.8658 14.4295C53.5633 14.4295 54.1313 14.9974 54.1313 15.6955C54.1313 16.3937 53.5633 16.9612 52.8658 16.9612C52.1675 16.9612 51.6003 16.3932 51.6003 15.6955C51.6003 14.9974 52.1675 14.4295 52.8658 14.4295ZM40.0738 29.831C40.0738 31.9506 41.7986 33.6754 43.9182 33.6754C46.0377 33.6754 47.762 31.9506 47.762 29.8309C47.762 27.7111 46.0377 25.9874 43.918 25.9874C41.7978 25.9874 40.0737 27.7115 40.0737 29.831H40.0738ZM45.1837 29.831C45.1837 30.5292 44.6158 31.0972 43.9175 31.0972C43.22 31.0972 42.652 30.5292 42.652 29.8309C42.652 29.1334 43.22 28.5653 43.9175 28.5653C44.6158 28.5653 45.1839 29.1334 45.1839 29.8309L45.1837 29.831ZM15.2888 33.8163C13.1694 33.8163 11.4453 35.5404 11.4453 37.6599C11.4453 39.7795 13.1692 41.5043 15.289 41.5043C17.4085 41.5043 19.1326 39.7795 19.1326 37.6599C19.1326 35.5404 17.4083 33.8163 15.2888 33.8163ZM15.2888 38.9261C14.5906 38.9261 14.0234 38.3583 14.0234 37.6599C14.0234 36.9625 14.5906 36.3944 15.289 36.3944C15.9866 36.3944 16.5545 36.9625 16.5545 37.6599C16.5545 38.3583 15.9864 38.9261 15.2888 38.9261ZM29.9621 53.6235C32.0817 53.6235 33.8057 51.8994 33.8057 49.7799C33.8057 47.6603 32.081 45.9356 29.9621 45.9356C27.8425 45.9356 26.1178 47.6603 26.1178 49.7799C26.1178 51.8994 27.8425 53.6235 29.9621 53.6235ZM29.9621 48.5137C30.6597 48.5137 31.2276 49.0816 31.2276 49.7799C31.2276 50.4773 30.6597 51.0454 29.9621 51.0454C29.2639 51.0454 28.6959 50.4773 28.6959 49.7799C28.6959 49.0816 29.2639 48.5137 29.9621 48.5137ZM24.1472 25.9913C24.509 25.9913 24.8737 25.9396 25.2309 25.8349C27.2652 25.2401 28.4367 23.1016 27.8418 21.0666C27.7015 20.5816 27.4663 20.1292 27.15 19.7356C26.8336 19.3421 26.4423 19.0152 25.9988 18.7738C25.5565 18.53 25.0702 18.3763 24.568 18.3217C24.0659 18.2671 23.5579 18.3126 23.0735 18.4557C21.0394 19.0503 19.8679 21.1888 20.4627 23.2231C20.7506 24.2088 21.4053 25.0239 22.3056 25.5166C22.8697 25.8273 23.5032 25.9906 24.1472 25.9913ZM23.7975 20.9303C23.9148 20.8961 24.0352 20.8787 24.1539 20.8787C24.3641 20.8787 24.5716 20.9317 24.7601 21.0352C24.9063 21.1146 25.0352 21.2222 25.1394 21.3518C25.2437 21.4815 25.3211 21.6306 25.3672 21.7904C25.5631 22.4605 25.1771 23.1647 24.5078 23.3601C24.3482 23.4072 24.1809 23.4221 24.0156 23.4042C23.8502 23.3862 23.69 23.3356 23.5443 23.2553C23.3983 23.1756 23.2695 23.0679 23.1654 22.9383C23.0612 22.8087 22.9837 22.6597 22.9374 22.5C22.7415 21.8308 23.1273 21.1264 23.7975 20.9303ZM20.0532 51.6645C20.0532 49.5449 18.3284 47.8207 16.2087 47.8207C14.0889 47.8207 12.3652 49.5449 12.3652 51.6645C12.3652 53.784 14.0891 55.5086 16.2088 55.5086C18.3284 55.508 20.0532 53.7839 20.0532 51.6643V51.6645ZM16.2087 52.93C15.5112 52.93 14.9431 52.362 14.9431 51.6645C14.9431 50.9662 15.5112 50.3983 16.2088 50.3983C16.907 50.3983 17.475 50.9662 17.475 51.6645C17.475 52.362 16.907 52.93 16.2087 52.93ZM52.1924 75.1703C54.312 75.1703 56.036 73.4464 56.036 71.3266C56.036 69.2071 54.312 67.483 52.1924 67.483C50.0728 67.483 48.3488 69.2071 48.3488 71.3266C48.3488 73.4462 50.0727 75.1703 52.1924 75.1703ZM52.1924 70.0611C52.8906 70.0611 53.4579 70.6292 53.4579 71.3266C53.4579 72.025 52.8907 72.5922 52.1924 72.5922C51.4948 72.5922 50.9269 72.025 50.9269 71.3266C50.9269 70.6292 51.4948 70.0611 52.1924 70.0611ZM43.9175 60.6181C46.037 60.6181 47.762 58.8939 47.762 56.7743C47.762 54.6548 46.037 52.9307 43.9175 52.9307C41.7979 52.9307 40.0738 54.6548 40.0738 56.7743C40.0738 58.8939 41.7979 60.6181 43.9175 60.6181ZM43.9175 55.5081C44.6158 55.5081 45.1839 56.0762 45.1839 56.7743C45.1839 57.472 44.6158 58.04 43.9175 58.04C43.22 58.04 42.652 57.472 42.652 56.7743C42.652 56.0762 43.22 55.5081 43.9175 55.5081ZM68.4272 28.2948C64.8991 28.2948 62.0288 31.1656 62.0288 34.6937C62.0288 38.222 64.8991 41.0926 68.4272 41.0926C71.9553 41.0926 74.8261 38.222 74.8261 34.6937C74.8261 31.1656 71.9553 28.2948 68.4272 28.2948ZM68.4272 38.5145C66.3204 38.5145 64.6069 36.8006 64.6069 34.6937C64.6069 32.587 66.3205 30.8729 68.4272 30.8729C70.534 30.8729 72.248 32.587 72.248 34.6937C72.248 36.8006 70.534 38.5145 68.4272 38.5145Z" fill="#393939"/>
<mask id="path-20-inside-1_1947_433" fill="white">
<path d="M87.8309 41.1876C86.9628 27.4402 79.6835 14.9638 68.309 7.37464C67.4548 6.80522 66.3961 6.60378 65.3897 6.8145C65.0716 5.83825 64.3712 5.01995 63.4527 4.56466C57.3508 1.5357 50.7785 0 43.9189 0C37.0601 0 30.4879 1.53553 24.385 4.56483C23.4672 5.02064 22.767 5.83842 22.4487 6.81467C21.4423 6.60378 20.3827 6.80522 19.5288 7.37447C8.16481 14.9571 0.876283 27.4288 0.00745481 41.1874C-0.0569983 42.214 0.299642 43.2333 0.985595 44C0.298783 44.7666 -0.0569983 45.7858 0.00745481 46.8124C0.875424 60.5598 8.15467 73.0362 19.5294 80.6254C19.9544 80.9079 20.4314 81.103 20.9326 81.1991C21.4338 81.2953 21.9491 81.2907 22.4485 81.1855C22.7668 82.1618 23.467 82.98 24.3855 83.4359C30.4878 86.4645 37.0597 88 43.9188 88C50.7783 88 57.3506 86.4645 63.4529 83.4352C65.4421 82.4483 66.1754 79.9702 65.0649 78.0467L46.1518 45.2891H59.9891V52.6046C59.9891 54.9765 61.8591 57.0785 64.5451 57.0785C67.075 57.0785 69.1333 55.0275 69.1333 52.5066V51.3241C69.1336 51.1237 69.2133 50.9315 69.355 50.7898C69.4968 50.6481 69.689 50.5684 69.8894 50.5682C70.0898 50.5684 70.282 50.6481 70.4237 50.7899C70.5654 50.9316 70.6451 51.1237 70.6453 51.3241V60.512C70.6453 62.6041 72.3474 64.3053 74.4395 64.3053C76.5308 64.3053 78.2327 62.6041 78.2327 60.512V45.2891H83.9691C86.1966 45.2891 87.9705 43.4065 87.8309 41.1876ZM21.4052 70.8326C19.9683 69.6255 18.9983 67.7208 17.6133 66.0718C16.2302 64.4256 14.5235 63.1446 13.5803 61.5144C12.647 59.9024 12.3831 57.7821 11.6425 55.7473C10.9121 53.7412 9.74795 51.9587 9.42019 50.0847C9.16581 48.6339 9.42088 47.0166 9.53363 45.2891L41.6866 45.2891L25.6069 73.1388C24.06 72.3762 22.5459 71.7906 21.4052 70.8326ZM9.42036 37.9151C9.74795 36.0413 10.9122 34.2588 11.6427 32.2527C12.3838 30.2158 12.647 28.0981 13.5803 26.4856C14.5228 24.8554 16.2309 23.5737 17.6133 21.9282C18.9996 20.2764 19.9678 18.3752 21.4052 17.1672C22.5459 16.2094 24.0607 15.6231 25.6075 14.8605L32.3904 26.6099C32.5615 26.9059 32.843 27.1218 33.1733 27.2103C33.5035 27.2988 33.8553 27.2525 34.1515 27.0817C34.4475 26.9106 34.6635 26.6291 34.752 26.2988C34.8405 25.9686 34.7943 25.6168 34.6234 25.3206L27.8387 13.5687C29.2633 12.6113 30.5221 11.5921 31.9368 11.0772C33.6776 10.4435 35.8107 10.553 37.953 10.1783C40.0478 9.81097 42.0029 8.97445 43.9189 8.97445C45.8359 8.97445 47.7909 9.81097 49.8856 10.1783C52.028 10.553 54.1618 10.4435 55.9019 11.0772C57.3159 11.5921 58.574 12.6106 60.0001 13.5687L43.9188 41.4219L37.6312 30.5307C37.2748 29.9143 36.4865 29.7027 35.8702 30.0587C35.2539 30.4152 35.0424 31.2034 35.3982 31.8197L41.6866 42.7109L9.53448 42.7109C9.42105 40.9836 9.16581 39.3663 9.42036 37.9153V37.9151ZM25.5316 6.87363C31.2744 4.02359 37.4614 2.57813 43.9188 2.57813C50.377 2.57813 56.5636 4.02359 62.3068 6.87363C62.962 7.19847 63.2031 8.02175 62.8317 8.66422L61.2922 11.3303C59.8731 10.3642 58.4967 9.2785 56.7833 8.65477C54.6362 7.87342 52.3547 7.99356 50.3299 7.6383C48.3667 7.29523 46.2661 6.39633 43.9189 6.39633C41.5723 6.39633 39.4708 7.29523 37.5083 7.6383C35.4842 7.99356 33.2022 7.87273 31.0544 8.65477C29.3417 9.27867 27.9688 10.3615 26.5462 11.3303C26.5346 11.3109 25.0072 8.66559 25.0072 8.66559C25.0065 8.66491 25.0065 8.66422 25.0065 8.66422C24.6359 8.02244 24.8755 7.19933 25.5316 6.87363ZM2.58094 41.3493C3.38772 28.5581 10.2589 16.6592 20.96 9.51895C21.569 9.11281 22.4043 9.3127 22.7762 9.95723L24.315 12.6227C22.7654 13.3755 21.134 14.0286 19.747 15.1934C17.979 16.6786 16.9445 18.7163 15.6386 20.2706C14.3368 21.82 12.5079 23.1904 11.3486 25.1945C10.1991 27.1812 9.91983 29.4477 9.2203 31.3706C8.53331 33.2571 7.28327 35.1706 6.88039 37.4708C6.57102 39.2385 6.82608 40.9822 6.94966 42.7109H3.86863C3.12475 42.7109 2.53385 42.0865 2.58094 41.3493ZM20.96 78.4804C10.2589 71.3408 3.38789 59.4418 2.58094 46.65C2.53385 45.9135 3.12475 45.2891 3.86931 45.2891H6.94966C6.82591 47.0205 6.57084 48.7615 6.88039 50.5292C7.28327 52.8294 8.53331 54.7436 9.2203 56.6294C9.91983 58.5516 10.1998 60.8188 11.3485 62.8055C12.5079 64.8089 14.3375 66.18 15.6393 67.7301C16.9452 69.2844 17.9797 71.3221 19.7476 72.8066C21.1333 73.9714 22.764 74.624 24.315 75.3773L22.7762 78.0421C22.4062 78.6839 21.5724 78.8894 20.96 78.4804ZM62.3068 81.1264C56.5638 83.9764 50.377 85.4219 43.9188 85.4219C37.4607 85.4219 31.2746 83.9764 25.5316 81.1264C24.8762 80.8007 24.6352 79.9782 25.0065 79.3358L26.546 76.6697C27.966 77.6365 29.3417 78.7215 31.0543 79.3452C31.2134 79.4032 31.3823 79.4292 31.5515 79.4219C31.7207 79.4145 31.8868 79.3738 32.0402 79.3023C32.1937 79.2307 32.3315 79.1295 32.4459 79.0046C32.5602 78.8797 32.6489 78.7335 32.7067 78.5744C32.7646 78.4154 32.7907 78.2465 32.7833 78.0774C32.776 77.9083 32.7354 77.7424 32.6639 77.589C32.5924 77.4356 32.4914 77.2978 32.3666 77.1835C32.2418 77.0691 32.0957 76.9805 31.9367 76.9227C30.5227 76.4079 29.2638 75.3894 27.8385 74.4305L43.9188 46.5781L59.9999 74.4305C58.5739 75.3894 57.3157 76.4079 55.9017 76.9227C54.1608 77.5565 52.0278 77.4465 49.8854 77.8217C47.7908 78.1883 45.8357 79.0256 43.9188 79.0256C41.8752 79.0256 39.8684 78.0918 37.4649 77.7439C37.1264 77.6951 36.7825 77.7827 36.5086 77.9874C36.2348 78.1921 36.0534 78.4972 36.0044 78.8356C35.903 79.5405 36.3918 80.1945 37.0962 80.2959C39.3178 80.6168 41.436 81.6038 43.9188 81.6038C46.2661 81.6038 48.366 80.7055 50.3299 80.3617C52.3535 80.0071 54.6353 80.1273 56.7838 79.3452C58.496 78.7222 59.8703 77.6385 61.2922 76.6697L62.8317 79.3358C63.2024 79.9776 62.9627 80.8007 62.3068 81.1264ZM76.9437 42.7109C76.2321 42.7109 75.6546 43.2884 75.6546 44V60.512C75.6542 60.8342 75.5261 61.143 75.2983 61.3708C75.0705 61.5986 74.7616 61.7268 74.4395 61.7272C74.1173 61.7268 73.8085 61.5986 73.5807 61.3708C73.3529 61.143 73.2247 60.8342 73.2243 60.512V51.3241C73.2243 49.4852 71.7283 47.9901 69.8894 47.9901C68.0512 47.9901 66.5552 49.4854 66.5552 51.3241V52.5066C66.5552 53.5344 65.7536 54.5004 64.4633 54.5004C64.2143 54.5005 63.9677 54.4516 63.7376 54.3564C63.5075 54.2612 63.2984 54.1215 63.1223 53.9455C62.9462 53.7694 62.8066 53.5604 62.7113 53.3303C62.6161 53.1002 62.5671 52.8536 62.5672 52.6046L62.5679 45.2891H72.3158C73.0273 45.2891 73.6048 44.7116 73.6048 44C73.6048 43.2884 73.0273 42.7109 72.3158 42.7109H46.1519L62.2308 14.8612C63.7758 15.6226 65.2918 16.2087 66.4332 17.1674C67.8706 18.3745 68.8394 20.2785 70.2251 21.9282C71.6082 23.5744 73.3149 24.8547 74.2581 26.4856C75.1914 28.0976 75.4544 30.2179 76.1957 32.2527C76.9262 34.2588 78.0897 36.0413 78.418 37.9153C78.6724 39.3661 78.4173 40.9834 78.3039 42.7109H76.9437ZM83.9691 42.7109H80.8887C81.0123 40.9795 81.2674 39.2385 80.9578 37.4708C80.5551 35.1706 79.3049 33.2564 78.6181 31.3706C77.9192 29.4491 77.6384 27.1803 76.4898 25.1945C75.3303 23.1904 73.5002 21.8188 72.1989 20.2699C70.8944 18.7162 69.8585 16.6779 68.0914 15.1934C66.7051 14.0293 65.0755 13.3767 63.5233 12.6227L65.0621 9.95741C65.4341 9.31287 66.2699 9.11281 66.8782 9.51895C77.5794 16.6592 84.4505 28.5581 85.2574 41.3493C85.3044 42.0879 84.7123 42.7109 83.9691 42.7109Z"/>
</mask>
<path d="M87.8309 41.1876C86.9628 27.4402 79.6835 14.9638 68.309 7.37464C67.4548 6.80522 66.3961 6.60378 65.3897 6.8145C65.0716 5.83825 64.3712 5.01995 63.4527 4.56466C57.3508 1.5357 50.7785 0 43.9189 0C37.0601 0 30.4879 1.53553 24.385 4.56483C23.4672 5.02064 22.767 5.83842 22.4487 6.81467C21.4423 6.60378 20.3827 6.80522 19.5288 7.37447C8.16481 14.9571 0.876283 27.4288 0.00745481 41.1874C-0.0569983 42.214 0.299642 43.2333 0.985595 44C0.298783 44.7666 -0.0569983 45.7858 0.00745481 46.8124C0.875424 60.5598 8.15467 73.0362 19.5294 80.6254C19.9544 80.9079 20.4314 81.103 20.9326 81.1991C21.4338 81.2953 21.9491 81.2907 22.4485 81.1855C22.7668 82.1618 23.467 82.98 24.3855 83.4359C30.4878 86.4645 37.0597 88 43.9188 88C50.7783 88 57.3506 86.4645 63.4529 83.4352C65.4421 82.4483 66.1754 79.9702 65.0649 78.0467L46.1518 45.2891H59.9891V52.6046C59.9891 54.9765 61.8591 57.0785 64.5451 57.0785C67.075 57.0785 69.1333 55.0275 69.1333 52.5066V51.3241C69.1336 51.1237 69.2133 50.9315 69.355 50.7898C69.4968 50.6481 69.689 50.5684 69.8894 50.5682C70.0898 50.5684 70.282 50.6481 70.4237 50.7899C70.5654 50.9316 70.6451 51.1237 70.6453 51.3241V60.512C70.6453 62.6041 72.3474 64.3053 74.4395 64.3053C76.5308 64.3053 78.2327 62.6041 78.2327 60.512V45.2891H83.9691C86.1966 45.2891 87.9705 43.4065 87.8309 41.1876ZM21.4052 70.8326C19.9683 69.6255 18.9983 67.7208 17.6133 66.0718C16.2302 64.4256 14.5235 63.1446 13.5803 61.5144C12.647 59.9024 12.3831 57.7821 11.6425 55.7473C10.9121 53.7412 9.74795 51.9587 9.42019 50.0847C9.16581 48.6339 9.42088 47.0166 9.53363 45.2891L41.6866 45.2891L25.6069 73.1388C24.06 72.3762 22.5459 71.7906 21.4052 70.8326ZM9.42036 37.9151C9.74795 36.0413 10.9122 34.2588 11.6427 32.2527C12.3838 30.2158 12.647 28.0981 13.5803 26.4856C14.5228 24.8554 16.2309 23.5737 17.6133 21.9282C18.9996 20.2764 19.9678 18.3752 21.4052 17.1672C22.5459 16.2094 24.0607 15.6231 25.6075 14.8605L32.3904 26.6099C32.5615 26.9059 32.843 27.1218 33.1733 27.2103C33.5035 27.2988 33.8553 27.2525 34.1515 27.0817C34.4475 26.9106 34.6635 26.6291 34.752 26.2988C34.8405 25.9686 34.7943 25.6168 34.6234 25.3206L27.8387 13.5687C29.2633 12.6113 30.5221 11.5921 31.9368 11.0772C33.6776 10.4435 35.8107 10.553 37.953 10.1783C40.0478 9.81097 42.0029 8.97445 43.9189 8.97445C45.8359 8.97445 47.7909 9.81097 49.8856 10.1783C52.028 10.553 54.1618 10.4435 55.9019 11.0772C57.3159 11.5921 58.574 12.6106 60.0001 13.5687L43.9188 41.4219L37.6312 30.5307C37.2748 29.9143 36.4865 29.7027 35.8702 30.0587C35.2539 30.4152 35.0424 31.2034 35.3982 31.8197L41.6866 42.7109L9.53448 42.7109C9.42105 40.9836 9.16581 39.3663 9.42036 37.9153V37.9151ZM25.5316 6.87363C31.2744 4.02359 37.4614 2.57813 43.9188 2.57813C50.377 2.57813 56.5636 4.02359 62.3068 6.87363C62.962 7.19847 63.2031 8.02175 62.8317 8.66422L61.2922 11.3303C59.8731 10.3642 58.4967 9.2785 56.7833 8.65477C54.6362 7.87342 52.3547 7.99356 50.3299 7.6383C48.3667 7.29523 46.2661 6.39633 43.9189 6.39633C41.5723 6.39633 39.4708 7.29523 37.5083 7.6383C35.4842 7.99356 33.2022 7.87273 31.0544 8.65477C29.3417 9.27867 27.9688 10.3615 26.5462 11.3303C26.5346 11.3109 25.0072 8.66559 25.0072 8.66559C25.0065 8.66491 25.0065 8.66422 25.0065 8.66422C24.6359 8.02244 24.8755 7.19933 25.5316 6.87363ZM2.58094 41.3493C3.38772 28.5581 10.2589 16.6592 20.96 9.51895C21.569 9.11281 22.4043 9.3127 22.7762 9.95723L24.315 12.6227C22.7654 13.3755 21.134 14.0286 19.747 15.1934C17.979 16.6786 16.9445 18.7163 15.6386 20.2706C14.3368 21.82 12.5079 23.1904 11.3486 25.1945C10.1991 27.1812 9.91983 29.4477 9.2203 31.3706C8.53331 33.2571 7.28327 35.1706 6.88039 37.4708C6.57102 39.2385 6.82608 40.9822 6.94966 42.7109H3.86863C3.12475 42.7109 2.53385 42.0865 2.58094 41.3493ZM20.96 78.4804C10.2589 71.3408 3.38789 59.4418 2.58094 46.65C2.53385 45.9135 3.12475 45.2891 3.86931 45.2891H6.94966C6.82591 47.0205 6.57084 48.7615 6.88039 50.5292C7.28327 52.8294 8.53331 54.7436 9.2203 56.6294C9.91983 58.5516 10.1998 60.8188 11.3485 62.8055C12.5079 64.8089 14.3375 66.18 15.6393 67.7301C16.9452 69.2844 17.9797 71.3221 19.7476 72.8066C21.1333 73.9714 22.764 74.624 24.315 75.3773L22.7762 78.0421C22.4062 78.6839 21.5724 78.8894 20.96 78.4804ZM62.3068 81.1264C56.5638 83.9764 50.377 85.4219 43.9188 85.4219C37.4607 85.4219 31.2746 83.9764 25.5316 81.1264C24.8762 80.8007 24.6352 79.9782 25.0065 79.3358L26.546 76.6697C27.966 77.6365 29.3417 78.7215 31.0543 79.3452C31.2134 79.4032 31.3823 79.4292 31.5515 79.4219C31.7207 79.4145 31.8868 79.3738 32.0402 79.3023C32.1937 79.2307 32.3315 79.1295 32.4459 79.0046C32.5602 78.8797 32.6489 78.7335 32.7067 78.5744C32.7646 78.4154 32.7907 78.2465 32.7833 78.0774C32.776 77.9083 32.7354 77.7424 32.6639 77.589C32.5924 77.4356 32.4914 77.2978 32.3666 77.1835C32.2418 77.0691 32.0957 76.9805 31.9367 76.9227C30.5227 76.4079 29.2638 75.3894 27.8385 74.4305L43.9188 46.5781L59.9999 74.4305C58.5739 75.3894 57.3157 76.4079 55.9017 76.9227C54.1608 77.5565 52.0278 77.4465 49.8854 77.8217C47.7908 78.1883 45.8357 79.0256 43.9188 79.0256C41.8752 79.0256 39.8684 78.0918 37.4649 77.7439C37.1264 77.6951 36.7825 77.7827 36.5086 77.9874C36.2348 78.1921 36.0534 78.4972 36.0044 78.8356C35.903 79.5405 36.3918 80.1945 37.0962 80.2959C39.3178 80.6168 41.436 81.6038 43.9188 81.6038C46.2661 81.6038 48.366 80.7055 50.3299 80.3617C52.3535 80.0071 54.6353 80.1273 56.7838 79.3452C58.496 78.7222 59.8703 77.6385 61.2922 76.6697L62.8317 79.3358C63.2024 79.9776 62.9627 80.8007 62.3068 81.1264ZM76.9437 42.7109C76.2321 42.7109 75.6546 43.2884 75.6546 44V60.512C75.6542 60.8342 75.5261 61.143 75.2983 61.3708C75.0705 61.5986 74.7616 61.7268 74.4395 61.7272C74.1173 61.7268 73.8085 61.5986 73.5807 61.3708C73.3529 61.143 73.2247 60.8342 73.2243 60.512V51.3241C73.2243 49.4852 71.7283 47.9901 69.8894 47.9901C68.0512 47.9901 66.5552 49.4854 66.5552 51.3241V52.5066C66.5552 53.5344 65.7536 54.5004 64.4633 54.5004C64.2143 54.5005 63.9677 54.4516 63.7376 54.3564C63.5075 54.2612 63.2984 54.1215 63.1223 53.9455C62.9462 53.7694 62.8066 53.5604 62.7113 53.3303C62.6161 53.1002 62.5671 52.8536 62.5672 52.6046L62.5679 45.2891H72.3158C73.0273 45.2891 73.6048 44.7116 73.6048 44C73.6048 43.2884 73.0273 42.7109 72.3158 42.7109H46.1519L62.2308 14.8612C63.7758 15.6226 65.2918 16.2087 66.4332 17.1674C67.8706 18.3745 68.8394 20.2785 70.2251 21.9282C71.6082 23.5744 73.3149 24.8547 74.2581 26.4856C75.1914 28.0976 75.4544 30.2179 76.1957 32.2527C76.9262 34.2588 78.0897 36.0413 78.418 37.9153C78.6724 39.3661 78.4173 40.9834 78.3039 42.7109H76.9437ZM83.9691 42.7109H80.8887C81.0123 40.9795 81.2674 39.2385 80.9578 37.4708C80.5551 35.1706 79.3049 33.2564 78.6181 31.3706C77.9192 29.4491 77.6384 27.1803 76.4898 25.1945C75.3303 23.1904 73.5002 21.8188 72.1989 20.2699C70.8944 18.7162 69.8585 16.6779 68.0914 15.1934C66.7051 14.0293 65.0755 13.3767 63.5233 12.6227L65.0621 9.95741C65.4341 9.31287 66.2699 9.11281 66.8782 9.51895C77.5794 16.6592 84.4505 28.5581 85.2574 41.3493C85.3044 42.0879 84.7123 42.7109 83.9691 42.7109Z" fill="white" stroke="white" stroke-width="2" mask="url(#path-20-inside-1_1947_433)"/>
</g>
<defs>
<clipPath id="clip0_1947_433">
<rect width="88" height="88" fill="white"/>
</clipPath>
</defs>
</svg>
